<svg xmlns="http://www.w3.org/2000/svg" width="80" height="80" viewBox="0 0 80 80">
    <g fill="#F0F0F0" fill-rule="nonzero">
        <path d="M23.226 72.258h10.323v2.581H23.226z"/>
        <path d="M76.129 18.065H56.774V6.452A6.459 6.459 0 0 0 50.323 0H6.452A6.459 6.459 0 0 0 0 6.452v67.096A6.459 6.459 0 0 0 6.452 80H76.129A3.876 3.876 0 0 0 80 76.129V21.935a3.876 3.876 0 0 0-3.871-3.87zM2.581 6.452A3.876 3.876 0 0 1 6.45 2.58h43.872a3.876 3.876 0 0 1 3.87 3.87v1.29H2.582v-1.29zm0 3.87h51.613v7.743h-2.581v-5.162H5.16v30.968h36.13v23.226H2.58V10.323zM6.45 77.42a3.876 3.876 0 0 1-3.87-3.87v-3.872h38.71v6.452c0 .454.092.885.237 1.29H6.452zm34.84-55.484V41.29H7.74V15.484h41.291v2.58h-3.87a3.876 3.876 0 0 0-3.872 3.871zM77.418 76.13c0 .711-.579 1.29-1.29 1.29H45.161c-.71 0-1.29-.579-1.29-1.29v-3.87h33.548v3.87zm0-6.452H43.871v-41.29h33.548v41.29zm0-43.87H43.871v-3.872c0-.71.58-1.29 1.29-1.29H76.13c.711 0 1.29.58 1.29 1.29v3.871z"/>
        <path d="M5.161 64.516h20.645V46.452H5.161v18.064zm2.58-15.484h15.485v12.903H7.742V49.032zM74.839 30.968H46.452v20.645h28.387V30.968zm-2.58 18.064H49.031V33.548h23.226v15.484z"/>
    </g>
</svg>
