<svg xmlns="http://www.w3.org/2000/svg" xmlns:xlink="http://www.w3.org/1999/xlink" width="80" height="80" viewBox="0 0 80 80">
    <defs>
        <path id="a" d="M0 .045h79.689v79.8H0z"/>
        <path id="c" d="M0 79.955h79.689V.155H0z"/>
    </defs>
    <g fill="none" fill-rule="evenodd">
        <path fill="#F0F0F0" d="M33.621 34.256H7.171a1.243 1.243 0 1 0 0 2.485h26.45a1.243 1.243 0 0 0 0-2.485M33.621 45.836H7.171a1.243 1.243 0 1 0 0 2.486h26.45a1.243 1.243 0 0 0 0-2.486M7.17 40.601h23.338a1.243 1.243 0 0 0 0-2.485H7.17a1.243 1.243 0 1 0 0 2.485M7.17 52.182h20.225a1.243 1.243 0 1 0 0-2.486H7.17a1.243 1.243 0 1 0 0 2.486M72.757 22.307c0 .19-.154.343-.343.343H42.846a.343.343 0 0 1-.343-.343V13.69h30.254v8.617zM42.503 7.962c0-.19.154-.343.343-.343h29.568c.189 0 .342.154.342.343v3.243H42.503V7.962zm29.91-2.828H42.847a2.831 2.831 0 0 0-2.828 2.828v14.345a2.831 2.831 0 0 0 2.828 2.829h29.568a2.831 2.831 0 0 0 2.828-2.829V7.962a2.831 2.831 0 0 0-2.828-2.828z"/>
        <path fill="#F0F0F0" d="M49.172 8.178a1.234 1.234 0 1 0 0 2.468 1.234 1.234 0 0 0 0-2.468M45.06 8.178a1.234 1.234 0 1 0 0 2.468 1.234 1.234 0 0 0 0-2.468"/>
        <g transform="translate(0 .111)">
            <mask id="b" fill="#fff">
                <use xlink:href="#a"/>
            </mask>
            <path fill="#F0F0F0" d="M72.756 47.966v1.472c0 .06-.048.108-.108.108h-8.154a.109.109 0 0 1-.109-.108v-1.472h8.371zm-8.37-2.486h8.37v-1.374h-8.37v1.374zm0-7.72V36.29c0-.06.048-.109.108-.109h8.154c.06 0 .108.05.108.109v1.472h-8.37zm0 3.86h8.37v-1.374h-8.37v1.375zm11.362 12.672H64.293v-2.27c.067.005.133.01.2.01h8.155a2.597 2.597 0 0 0 2.594-2.594v-13.15a2.597 2.597 0 0 0-2.594-2.593h-8.154a2.58 2.58 0 0 0-.2.01v-.087a6.233 6.233 0 0 0-6.226-6.225H38.056V3.986c0-.803.653-1.456 1.456-1.456h36.236c.802 0 1.455.653 1.455 1.456v48.85c0 .803-.653 1.456-1.455 1.456zm-4.445 4.048h3.202v-1.563h-3.202v1.563zm-9.5 5.317H2.49V33.618a3.74 3.74 0 0 1 3.736-3.735h51.842a3.74 3.74 0 0 1 3.735 3.735v30.04zm-3.735 6.226H6.226a3.74 3.74 0 0 1-3.736-3.735h59.313a3.74 3.74 0 0 1-3.735 3.735zm-31.609 7.471h12.452v-4.98H26.459v4.98zM75.748.044H39.512a3.945 3.945 0 0 0-3.941 3.942v23.407H6.226A6.233 6.233 0 0 0 0 33.618v32.53a6.233 6.233 0 0 0 6.226 6.225h17.743v4.981h-4.98v2.49h27.393v-2.49h-4.98v-4.98h16.666a6.233 6.233 0 0 0 6.225-6.226v-9.37h4.524V58.4a2.427 2.427 0 0 0 2.425 2.424h3.324a2.427 2.427 0 0 0 2.425-2.424v-1.826a3.947 3.947 0 0 0 2.698-3.739V3.986A3.946 3.946 0 0 0 75.748.045z" mask="url(#b)"/>
        </g>
        <mask id="d" fill="#fff">
            <use xlink:href="#c"/>
        </mask>
        <path fill="#F0F0F0" d="M41.09 56.357h13.695v-19.61H41.089v19.61zm-2.49 2.49h18.675V34.256H38.599v24.591z" mask="url(#d)"/>
    </g>
</svg>
