<svg xmlns="http://www.w3.org/2000/svg" width="53" height="64" viewBox="0 0 53 64">
    <g fill="#F0F0F0" fill-rule="nonzero">
        <path d="M26.25 5.001c-.692 0-1.249.558-1.249 1.249 0 .643.484 1.179 1.124 1.242a1.246 1.246 0 0 0 1.374-1.242c0-.692-.558-1.249-1.249-1.249z"/>
        <path d="M51.25 7.5A6.257 6.257 0 0 1 45 1.25C45 .56 44.44 0 43.75 0h-35C8.06 0 7.5.56 7.5 1.25A6.257 6.257 0 0 1 1.25 7.5C.56 7.5 0 8.06 0 8.75v20.399C0 45.046 10.362 59.29 25.891 63.947a1.254 1.254 0 0 0 .718 0C41.802 59.39 52.5 45.394 52.5 29.15V8.75c0-.69-.56-1.25-1.25-1.25zM50 29.149c0 14.93-9.528 27.861-23.75 32.294A33.8 33.8 0 0 1 2.5 29.149V9.91A8.77 8.77 0 0 0 9.911 2.5h32.678A8.77 8.77 0 0 0 50 9.911v19.238z"/>
        <path d="M46.752 11.561a11.26 11.26 0 0 1-5.813-5.813A1.25 1.25 0 0 0 39.794 5h-8.546a1.25 1.25 0 0 0 0 2.5h7.755A13.742 13.742 0 0 0 45 13.497v15.652c0 12.233-7.344 22.788-18.75 27.013C14.844 51.937 7.5 41.382 7.5 29.149V13.497A13.742 13.742 0 0 0 13.497 7.5h7.756a1.25 1.25 0 0 0 0-2.5h-8.547a1.25 1.25 0 0 0-1.145.748 11.26 11.26 0 0 1-5.813 5.813A1.25 1.25 0 0 0 5 12.706V29.15c0 13.401 8.289 25.081 20.833 29.52a1.25 1.25 0 0 0 .834 0C39.201 54.234 47.5 42.561 47.5 29.15V12.706a1.25 1.25 0 0 0-.748-1.145z"/>
        <path d="M26.25 18.25C20.047 18.25 15 23.297 15 29.5s5.047 11.25 11.25 11.25S37.5 35.703 37.5 29.5s-5.047-11.25-11.25-11.25zm0 20c-4.825 0-8.75-3.925-8.75-8.75s3.925-8.75 8.75-8.75S35 24.675 35 29.5s-3.925 8.75-8.75 8.75z"/>
        <path d="M32.134 26.116a1.25 1.25 0 0 0-1.768 0L25 31.482l-1.616-1.616a1.25 1.25 0 0 0-1.768 1.768l2.5 2.5a1.247 1.247 0 0 0 1.768 0l6.25-6.25a1.25 1.25 0 0 0 0-1.768z"/>
    </g>
</svg>
