<svg xmlns="http://www.w3.org/2000/svg" width="63" height="64" viewBox="0 0 63 64">
    <g fill="#F0F0F0" fill-rule="nonzero">
        <path d="M31.5 21.029c-6.05 0-10.971 4.921-10.971 10.971S25.45 42.971 31.5 42.971c6.05 0 10.971-4.921 10.971-10.971S37.55 21.029 31.5 21.029zm0 19.33c-4.61 0-8.36-3.75-8.36-8.359 0-4.61 3.75-8.36 8.36-8.36 4.61 0 8.36 3.75 8.36 8.36 0 4.61-3.75 8.36-8.36 8.36z"/>
        <path d="M43.691 19.809a17.128 17.128 0 0 0-12.191-5.05 17.127 17.127 0 0 0-12.191 5.05 17.23 17.23 0 0 0-2.662 20.952 1.306 1.306 0 0 0 2.249-1.329 14.62 14.62 0 0 1 2.26-17.776A14.532 14.532 0 0 1 31.5 17.37c3.907 0 7.581 1.522 10.344 4.285A14.533 14.533 0 0 1 46.129 32c0 3.907-1.522 7.58-4.285 10.344a14.62 14.62 0 0 1-17.777 2.26 1.306 1.306 0 1 0-1.328 2.25 17.174 17.174 0 0 0 8.75 2.393c4.46 0 8.876-1.73 12.202-5.056A17.128 17.128 0 0 0 48.741 32c0-4.605-1.794-8.935-5.05-12.191z"/>
        <path d="M21.159 42.347l-.012-.012a1.306 1.306 0 1 0-1.852 1.842l.011.012a1.302 1.302 0 0 0 1.847.005 1.306 1.306 0 0 0 .006-1.847z"/>
        <path d="M62.448 40.337l-5.6-5.059a25.844 25.844 0 0 0 0-6.556l5.6-5.059c.457-.413.563-1.09.255-1.623L55.715 9.96a1.306 1.306 0 0 0-1.532-.589l-7.172 2.318a25.49 25.49 0 0 0-5.677-3.283l-1.58-7.372A1.306 1.306 0 0 0 38.479 0H24.522c-.616 0-1.148.43-1.277 1.032l-1.58 7.373a25.487 25.487 0 0 0-5.676 3.283L8.817 9.37a1.306 1.306 0 0 0-1.532.589L.296 22.04a1.306 1.306 0 0 0 .255 1.623l5.6 5.059a25.844 25.844 0 0 0 0 6.556l-5.6 5.059a1.306 1.306 0 0 0-.255 1.623L7.284 54.04c.309.533.947.779 1.533.589l7.172-2.318a25.49 25.49 0 0 0 5.677 3.283l1.58 7.372A1.306 1.306 0 0 0 24.522 64h13.955c.616 0 1.148-.43 1.277-1.033l1.58-7.373a25.487 25.487 0 0 0 5.676-3.282l7.172 2.318a1.306 1.306 0 0 0 1.533-.589l6.987-12.081a1.306 1.306 0 0 0-.255-1.623zM53.983 51.82l-6.831-2.208c-.42-.135-.88-.05-1.224.228a22.888 22.888 0 0 1-6.194 3.582 1.307 1.307 0 0 0-.809.946l-1.503 7.02H25.578l-1.504-7.02a1.306 1.306 0 0 0-.808-.946 22.886 22.886 0 0 1-6.194-3.582 1.306 1.306 0 0 0-1.224-.228l-6.83 2.208-5.93-10.253 5.33-4.816c.327-.295.483-.736.415-1.171a23.2 23.2 0 0 1 0-7.16 1.307 1.307 0 0 0-.415-1.172l-5.33-4.815 5.93-10.253 6.83 2.207c.42.136.88.05 1.224-.227a22.888 22.888 0 0 1 6.194-3.582c.412-.159.716-.514.808-.946l1.504-7.02h11.844l1.504 7.02c.092.432.396.787.808.946a22.886 22.886 0 0 1 6.194 3.582c.343.278.803.363 1.224.227l6.83-2.207 5.93 10.253-5.33 4.816a1.307 1.307 0 0 0-.416 1.17 23.2 23.2 0 0 1 0 7.16c-.067.436.088.877.416 1.172l5.33 4.816-5.93 10.253z"/>
    </g>
</svg>
