<svg xmlns="http://www.w3.org/2000/svg" width="57" height="64" viewBox="0 0 57 64">
    <g fill="#F0F0F0" fill-rule="nonzero">
        <path d="M42.344 57.771a1.248 1.248 0 0 0-1.727-.364 24.513 24.513 0 0 1-13.414 3.973c-13.57 0-24.61-11.04-24.61-24.61 0-4.928 1.451-9.682 4.196-13.75a1.248 1.248 0 1 0-2.068-1.395A26.974 26.974 0 0 0 .098 36.77c0 7.24 2.82 14.047 7.94 19.166 5.119 5.12 11.925 7.94 19.165 7.94 5.27 0 10.38-1.514 14.776-4.378.578-.376.74-1.15.365-1.727zM46.535 53.988a1.248 1.248 0 0 0-1.765.018l-.041.042a1.248 1.248 0 0 0 1.771 1.757l.052-.052a1.248 1.248 0 0 0-.017-1.765zM51.588 20.446a1.244 1.244 0 0 0 1.765 0l2.078-2.078a3.803 3.803 0 0 0 0-5.372l-4.454-4.453A3.774 3.774 0 0 0 48.29 7.43a3.773 3.773 0 0 0-2.686 1.113l-2.078 2.078a1.248 1.248 0 0 0 0 1.764l.59.59-1.495 1.495a26.792 26.792 0 0 0-10.553-4.371V7.985h2.745c.69 0 1.248-.559 1.248-1.248v-5.49C36.062.56 35.503 0 34.814 0h-15.22c-.69 0-1.248.559-1.248 1.248v5.49c0 .688.558 1.247 1.247 1.247h2.745V10.1A26.943 26.943 0 0 0 12.3 14.126a1.248 1.248 0 0 0 1.374 2.083 24.504 24.504 0 0 1 13.53-4.05c13.57 0 24.61 11.04 24.61 24.611 0 4.602-1.278 9.09-3.695 12.977a1.248 1.248 0 0 0 2.119 1.318 27.04 27.04 0 0 0 4.071-14.295c0-5.59-1.682-10.922-4.805-15.419l1.495-1.494.59.59zM29.574 9.768a27.326 27.326 0 0 0-4.741 0V7.985h4.741v1.783zM23.586 5.49H20.84V2.495h12.726V5.49h-9.981zm24.387 13.863a27.664 27.664 0 0 0-1.603-1.75A27.67 27.67 0 0 0 44.62 16l1.261-1.26 3.353 3.352-1.261 1.26zm-1.21-7.26l-.59-.59 1.197-1.196c.246-.246.573-.381.921-.381.348 0 .675.135.922.381l4.453 4.454a1.305 1.305 0 0 1 0 1.843L52.47 17.8l-.588-.588-.001-.002-5.117-5.117z"/>
        <path d="M27.204 19.087c-.69 0-1.248.558-1.248 1.247v2.745a1.248 1.248 0 1 0 2.495 0v-2.745c0-.689-.558-1.247-1.247-1.247zM39.707 24.266a1.257 1.257 0 0 0-.882-.365c-.328 0-.65.133-.882.365a1.257 1.257 0 0 0-.365.882c0 .33.133.65.365.882.232.232.554.366.882.366.328 0 .65-.134.882-.366.232-.232.366-.554.366-.882 0-.328-.134-.65-.366-.882zM43.64 35.522h-2.746a1.248 1.248 0 0 0 0 2.495h2.745a1.248 1.248 0 0 0 0-2.495zM39.707 47.51a1.257 1.257 0 0 0-.882-.366c-.328 0-.65.133-.882.365a1.257 1.257 0 0 0-.365.882 1.252 1.252 0 0 0 1.247 1.248 1.251 1.251 0 0 0 1.248-1.248c0-.328-.134-.649-.366-.882zM27.204 49.213c-.69 0-1.248.559-1.248 1.248v2.744a1.248 1.248 0 0 0 2.495 0v-2.744c0-.69-.558-1.248-1.247-1.248zM16.464 47.51a1.257 1.257 0 0 0-.882-.366c-.328 0-.65.133-.882.365a1.257 1.257 0 0 0-.365.882 1.251 1.251 0 0 0 1.248 1.248 1.252 1.252 0 0 0 1.247-1.248c0-.328-.134-.65-.366-.882zM13.513 35.522h-2.745a1.248 1.248 0 0 0 0 2.495h2.745a1.248 1.248 0 0 0 0-2.495zM16.464 24.266a1.257 1.257 0 0 0-.882-.365c-.328 0-.65.133-.882.365a1.257 1.257 0 0 0-.365.882c0 .328.133.65.365.882.232.232.554.366.882.366.328 0 .65-.134.882-.366.232-.232.366-.554.366-.882 0-.328-.134-.65-.366-.882zM36.944 27.029a1.248 1.248 0 0 0-1.528-.185l-10.298 6.235a3.286 3.286 0 0 0-.373.238 4.239 4.239 0 0 0 2.459 7.695c1.417 0 2.673-.7 3.444-1.77.092-.115.178-.265.248-.388l6.233-10.297a1.248 1.248 0 0 0-.185-1.528zm-8.197 10.557l-.103.17a1.746 1.746 0 1 1-2.426-2.426l.169-.103c.244-.13.521-.204.816-.204a1.749 1.749 0 0 1 1.544 2.563zm1.95-3.22a4.274 4.274 0 0 0-1.09-1.088l2.76-1.67-1.67 2.758z"/>
        <path d="M27.204 15.158c-11.917 0-21.613 9.695-21.613 21.612 0 11.917 9.696 21.612 21.613 21.612s21.612-9.695 21.612-21.612c0-11.917-9.695-21.612-21.612-21.612zm0 40.729c-10.541 0-19.117-8.576-19.117-19.117s8.575-19.117 19.117-19.117c10.54 0 19.117 8.576 19.117 19.117s-8.576 19.117-19.117 19.117zM9.878 17.528a1.257 1.257 0 0 0-.882-.366c-.328 0-.65.134-.882.366a1.257 1.257 0 0 0-.366.882c0 .329.134.65.366.882.232.232.554.365.882.365.328 0 .65-.133.882-.365.232-.232.365-.554.365-.882 0-.328-.133-.65-.365-.882z"/>
    </g>
</svg>
