<svg xmlns="http://www.w3.org/2000/svg" width="53" height="57" viewBox="0 0 53 57">
    <g fill="#F0F0F0" fill-rule="nonzero">
        <path d="M36.746 7.048a14.441 14.441 0 0 0-2.382-1.933l1.38-2.927c.182-.458 0-1.008-.455-1.192-.456-.183-1.002 0-1.184.459l-1.31 2.777c-1.797-.868-4.046-1.493-6.796-1.493-2.782 0-5.128.569-7.071 1.489L17.62 1.455c-.182-.459-.729-.642-1.184-.459-.456.184-.638.734-.456 1.192L17.354 5.1c-3.914 2.517-5.786 6.536-6.019 9.468l-.09 1.008H40.57l-.09-1.008c-.183-1.926-1.276-4.952-3.735-7.52zM13.34 13.742c.82-3.943 4.645-9.17 12.751-9.17 2.575 0 4.707.601 6.44 1.531.08.09.18.164.3.212.055.055.143.077.224.085 3.262 1.965 4.988 5.107 5.514 7.343H13.339zM5.31 17.67c-2.542 0-4.54 2.046-4.54 4.65v13.023c0 2.604 1.997 4.65 4.54 4.65 2.54 0 4.538-2.045 4.538-4.65V22.32c0-2.604-1.997-4.65-4.539-4.65zm2.722 17.673c0 1.581-1.18 2.79-2.723 2.79s-2.723-1.209-2.723-2.79V22.32c0-1.581 1.18-2.79 2.723-2.79s2.723 1.209 2.723 2.79v13.023zM47.903 17.67c-2.541 0-4.539 2.046-4.539 4.65v13.023c0 2.604 1.997 4.65 4.54 4.65 2.54 0 4.538-2.045 4.538-4.65V22.32c0-2.604-1.997-4.65-4.539-4.65zm2.723 17.673c0 1.581-1.18 2.79-2.723 2.79s-2.723-1.209-2.723-2.79V22.32c0-1.581 1.18-2.79 2.723-2.79s2.723 1.209 2.723 2.79v13.023zM11.244 44.645h3.666v8.372c0 2.046 1.65 3.72 3.666 3.72s3.666-1.674 3.666-3.72v-8.372h7.332v8.372c0 2.046 1.65 3.72 3.666 3.72s3.666-1.674 3.666-3.72v-8.372h3.665V17.669H11.244v26.976zm1.833-25.115H38.74v23.254h-3.666v10.233c0 1.023-.825 1.86-1.833 1.86s-1.833-.837-1.833-1.86V42.784H20.409v10.233c0 1.023-.825 1.86-1.833 1.86s-1.833-.837-1.833-1.86V42.784h-3.666V19.53z"/>
        <path d="M22.417 8.6a2.1 2.1 0 0 0-2.095 2.093 2.1 2.1 0 0 0 2.095 2.093 2.1 2.1 0 0 0 2.094-2.093A2.1 2.1 0 0 0 22.417 8.6zM31.494 8.6a2.1 2.1 0 0 0-2.095 2.093 2.1 2.1 0 0 0 2.095 2.093 2.1 2.1 0 0 0 2.095-2.093A2.1 2.1 0 0 0 31.494 8.6z"/>
    </g>
</svg>
