<svg xmlns="http://www.w3.org/2000/svg" width="44" height="56" viewBox="0 0 44 56">
    <g fill="#F0F0F0" fill-rule="nonzero">
        <path d="M32.396 1.113L32.338 0 31.23.12c-.109.01-10.828 1.302-11.563 13.277l-.074 1.198 1.2-.08c.123-.01 12.263-.977 11.604-13.402zm-1.605.984c-.202 7.217-5.82 9.224-8.4 9.766.982-7.013 6.072-9.15 8.4-9.766z"/>
        <path d="M43.321 39.587l-.674-.218c-4.085-1.32-6.828-5.057-6.828-9.302 0-3.776 2.137-7.153 5.578-8.814l1.027-.495-.573-.985c-.245-.422-2.536-4.16-7.375-5.399-3.838-.981-8.154-.113-12.832 2.583-1.98-1.201-8.558-4.663-13.791-1.193C6.828 16.33-4.03 22.83 1.62 40.367c.166.393 4.107 9.618 8.77 13.073 1.258 1.2 4.475 2.701 8.151.197.637-.263 4.899-1.902 7.603.018.998.683 2.74 1.456 4.581 1.456 1.397 0 2.849-.444 4.076-1.71.573-.495 5.802-5.159 8.52-12.546l.079-.215-.08-1.053zm-9.904 12.227l-.081.077c-2.316 2.43-5.828.106-5.958.02-1.382-.982-2.982-1.302-4.483-1.302-2.724 0-5.119 1.054-5.272 1.123l-.172.097c-3.189 2.224-5.372.267-5.603.044l-.125-.106C7.506 48.694 3.63 39.623 3.624 39.62-1.666 23.19 8.468 17.816 8.9 17.598l.116-.069c4.908-3.292 11.963 1.474 12.033 1.521l.563.386.583-.351c4.394-2.654 8.359-3.557 11.784-2.68 2.79.714 4.569 2.456 5.44 3.527-3.536 2.165-5.684 5.942-5.684 10.122 0 4.808 2.889 9.08 7.29 10.939-2.71 6.607-7.555 10.778-7.607 10.821z"/>
    </g>
</svg>
