<svg xmlns="http://www.w3.org/2000/svg" xmlns:xlink="http://www.w3.org/1999/xlink" viewBox="0 0 320.52 66"><defs><style>.cls-1{fill:url(#Neues_Verlaufsfeld_2);}.cls-2{fill:url(#Neues_Verlaufsfeld_2-2);}.cls-3{fill:url(#Neues_Verlaufsfeld_2-3);}.cls-4{fill:url(#Neues_Verlaufsfeld_2-4);}.cls-5{fill:url(#Neues_Verlaufsfeld_2-5);}.cls-6{fill:url(#Neues_Verlaufsfeld_2-6);}.cls-7{fill:url(#Neues_Verlaufsfeld_2-7);}.cls-8{fill:url(#Neues_Verlaufsfeld_2-8);}.cls-9{fill:url(#Neues_Verlaufsfeld_2-9);}.cls-10{fill:url(#Neues_Verlaufsfeld_2-10);}.cls-11{fill:url(#Unbenannter_Verlauf_15);}.cls-12{fill:url(#Neues_Verlaufsfeld_2-11);}.cls-13{fill:url(#Neues_Verlaufsfeld_2-12);}.cls-14{fill:url(#Neues_Verlaufsfeld_2-13);}.cls-15{fill:url(#linear-gradient);}</style><linearGradient id="Neues_Verlaufsfeld_2" x1="181.16" y1="29.88" x2="303.83" y2="-30.79" gradientUnits="userSpaceOnUse"><stop offset="0" stop-color="#593c8f"/><stop offset="1" stop-color="#20d19f"/></linearGradient><linearGradient id="Neues_Verlaufsfeld_2-2" x1="188.15" y1="44" x2="310.81" y2="-16.66" xlink:href="#Neues_Verlaufsfeld_2"/><linearGradient id="Neues_Verlaufsfeld_2-3" x1="190.84" y1="49.45" x2="313.51" y2="-11.22" xlink:href="#Neues_Verlaufsfeld_2"/><linearGradient id="Neues_Verlaufsfeld_2-4" x1="194.54" y1="56.93" x2="317.21" y2="-3.74" xlink:href="#Neues_Verlaufsfeld_2"/><linearGradient id="Neues_Verlaufsfeld_2-5" x1="198.65" y1="65.24" x2="321.32" y2="4.57" xlink:href="#Neues_Verlaufsfeld_2"/><linearGradient id="Neues_Verlaufsfeld_2-6" x1="202.3" y1="72.62" x2="324.97" y2="11.95" xlink:href="#Neues_Verlaufsfeld_2"/><linearGradient id="Neues_Verlaufsfeld_2-7" x1="194.62" y1="57.09" x2="317.29" y2="-3.58" xlink:href="#Neues_Verlaufsfeld_2"/><linearGradient id="Neues_Verlaufsfeld_2-8" x1="199.77" y1="67.51" x2="322.44" y2="6.85" xlink:href="#Neues_Verlaufsfeld_2"/><linearGradient id="Neues_Verlaufsfeld_2-9" x1="201.76" y1="71.52" x2="324.42" y2="10.86" xlink:href="#Neues_Verlaufsfeld_2"/><linearGradient id="Neues_Verlaufsfeld_2-10" x1="207.59" y1="83.32" x2="330.26" y2="22.65" xlink:href="#Neues_Verlaufsfeld_2"/><linearGradient id="Unbenannter_Verlauf_15" x1="97.44" y1="27.54" x2="131.68" y2="-6.71" gradientUnits="userSpaceOnUse"><stop offset="0" stop-color="#20d19f"/><stop offset="1" stop-color="#593c8f"/></linearGradient><linearGradient id="Neues_Verlaufsfeld_2-11" x1="6.71" y1="72.19" x2="40.95" y2="37.95" xlink:href="#Neues_Verlaufsfeld_2"/><linearGradient id="Neues_Verlaufsfeld_2-12" x1="136.1" y1="37.95" x2="170.34" y2="72.19" xlink:href="#Neues_Verlaufsfeld_2"/><linearGradient id="Neues_Verlaufsfeld_2-13" x1="10.41" y1="23.83" x2="75.9" y2="89.31" xlink:href="#Neues_Verlaufsfeld_2"/><linearGradient id="linear-gradient" x1="88.52" y1="49.86" x2="140.59" y2="-2.21" xlink:href="#Neues_Verlaufsfeld_2"/></defs><title>Mobius_labs_logo_Horizontal_#593C8F to #20D19F</title><g id="Layer_2" data-name="Layer 2"><g id="Layer_2-2" data-name="Layer 2"><path class="cls-1" d="M213.28,21.79,223.35,0h4.12V28h-3.12V4.68l-9.47,20.75h-3.2L202.21,4.68V28h-3.12V0h4.15Z"/><path class="cls-2" d="M241.57,6.68A10.56,10.56,0,0,1,252.4,17.59a10.86,10.86,0,1,1-21.71,0A10.62,10.62,0,0,1,241.57,6.68Zm0,19c4.48,0,7.67-3.4,7.67-8s-3.19-8-7.67-8-7.6,3.48-7.6,8S237.09,25.63,241.53,25.63Z"/><path class="cls-3" d="M255.63,0h3.15V10.55a8.62,8.62,0,0,1,7.36-3.87c5.88,0,9.92,4.55,9.92,11S271.82,28.5,265.9,28.5a8.61,8.61,0,0,1-7.24-3.79V28h-3ZM265.7,25.67c4,0,7.12-3.16,7.12-8s-3-8.12-7-8.12c-3.92,0-7.12,3-7.12,8.12C258.66,22,261.38,25.67,265.7,25.67Z"/><path class="cls-4" d="M280.82,0A2.16,2.16,0,0,1,283,2.16a2.18,2.18,0,1,1-4.36,0A2.15,2.15,0,0,1,280.82,0Zm-1.56,7.2h3.16V28h-3.16Z"/><path class="cls-5" d="M286.66,20.19V7.2h3.16V20.31c0,3.32,2.12,5.32,4.92,5.32,3.2,0,5.4-2.36,5.4-5.8V7.2h3.19V28h-3.15V25A7,7,0,0,1,294,28.5C289.18,28.5,286.66,24.91,286.66,20.19Z"/><path class="cls-6" d="M308.4,22.63a5.54,5.54,0,0,0,5.2,3.2c2.08,0,3.84-1.2,3.84-3.32,0-4.8-10.44-3.16-10.44-10.2,0-3.51,2.92-5.63,6.68-5.63a6.61,6.61,0,0,1,6.44,4L317.8,12a4.44,4.44,0,0,0-4.32-2.67c-1.92,0-3.44,1.07-3.44,2.87,0,4.68,10.48,2.92,10.48,10.16,0,3.68-3,6.15-7.08,6.15a7.41,7.41,0,0,1-7.24-4.43Z"/><path class="cls-7" d="M199.09,37.5h3.24V62.57H212.8v2.91H199.09Z"/><path class="cls-8" d="M222.36,52.25a7.92,7.92,0,0,1,5.48,1.88V51.57c0-2.92-2-4.6-5-4.6a11.92,11.92,0,0,0-6.12,1.8l-1.28-2.32a14.66,14.66,0,0,1,7.68-2.28c5.68,0,7.92,3.16,7.92,7.6V65.48h-2.72l-.36-1.76A7.09,7.09,0,0,1,222.28,66c-4.56,0-7.91-2.87-7.91-6.91S217.68,52.25,222.36,52.25Zm.44,11.11c3,0,5.16-1.79,5.16-4.31s-2.08-4.28-5.2-4.28-5.2,1.84-5.2,4.28S219.6,63.36,222.8,63.36Z"/><path class="cls-9" d="M235.36,37.5h3.16V48.05a8.58,8.58,0,0,1,7.35-3.88c5.88,0,9.92,4.56,9.92,11S251.55,66,245.63,66a8.6,8.6,0,0,1-7.23-3.79v3.27h-3Zm10.07,25.66c4,0,7.12-3.15,7.12-8s-3-8.12-7-8.12c-3.92,0-7.11,3-7.11,8.12C238.4,59.53,241.12,63.16,245.43,63.16Z"/><path class="cls-10" d="M259.5,60.13a5.53,5.53,0,0,0,5.19,3.2c2.08,0,3.84-1.2,3.84-3.32,0-4.8-10.43-3.16-10.43-10.2,0-3.52,2.92-5.64,6.67-5.64a6.6,6.6,0,0,1,6.44,4l-2.32,1.32a4.44,4.44,0,0,0-4.32-2.68c-1.91,0-3.43,1.08-3.43,2.88,0,4.68,10.47,2.92,10.47,10.16,0,3.67-3,6.15-7.08,6.15a7.42,7.42,0,0,1-7.23-4.43Z"/><polygon class="cls-11" points="111.56 0 90.73 20.83 104.14 34.24 138.38 0 111.56 0"/><polygon class="cls-12" points="34.24 31.24 0 65.48 26.82 65.48 47.65 44.66 34.24 31.24"/><polygon class="cls-13" points="142.8 31.24 129.39 44.66 150.22 65.48 177.04 65.48 142.8 31.24"/><polygon class="cls-14" points="34.24 26.82 72.9 65.48 99.72 65.48 34.24 0 0 34.24 0 61.07 34.24 26.82"/><polygon class="cls-15" points="142.8 0 104.14 38.66 65.48 0 38.66 0 104.14 65.48 104.14 65.48 142.8 26.82 177.04 61.07 177.04 34.24 142.8 0"/></g></g></svg>