<svg xmlns="http://www.w3.org/2000/svg" xmlns:xlink="http://www.w3.org/1999/xlink" viewBox="0 0 177.04 65.48"><defs><style>.cls-1{fill:url(#Unbenannter_Verlauf_15);}.cls-2{fill:url(#Neues_Verlaufsfeld_2);}.cls-3{fill:url(#Neues_Verlaufsfeld_2-2);}.cls-4{fill:url(#Neues_Verlaufsfeld_2-3);}.cls-5{fill:url(#Neues_Verlaufsfeld_2-4);}</style><linearGradient id="Unbenannter_Verlauf_15" x1="97.44" y1="27.54" x2="131.68" y2="-6.71" gradientUnits="userSpaceOnUse"><stop offset="0" stop-color="#20d19f"/><stop offset="1" stop-color="#593c8f"/></linearGradient><linearGradient id="Neues_Verlaufsfeld_2" x1="6.71" y1="72.19" x2="40.95" y2="37.95" gradientUnits="userSpaceOnUse"><stop offset="0" stop-color="#593c8f"/><stop offset="1" stop-color="#20d19f"/></linearGradient><linearGradient id="Neues_Verlaufsfeld_2-2" x1="136.1" y1="37.95" x2="170.34" y2="72.19" xlink:href="#Neues_Verlaufsfeld_2"/><linearGradient id="Neues_Verlaufsfeld_2-3" x1="10.41" y1="23.83" x2="75.9" y2="89.31" xlink:href="#Neues_Verlaufsfeld_2"/><linearGradient id="Neues_Verlaufsfeld_2-4" x1="88.52" y1="49.86" x2="140.59" y2="-2.21" xlink:href="#Neues_Verlaufsfeld_2"/></defs><title>Mobius_labs_pictogram_#593C8F to #20D19F</title><g id="Layer_2" data-name="Layer 2"><g id="Layer_2-2" data-name="Layer 2"><polygon class="cls-1" points="111.56 0 90.73 20.83 104.14 34.24 138.38 0 111.56 0"/><polygon class="cls-2" points="34.24 31.24 0 65.48 26.82 65.48 47.65 44.66 34.24 31.24"/><polygon class="cls-3" points="142.8 31.24 129.39 44.66 150.22 65.48 177.04 65.48 142.8 31.24"/><polygon class="cls-4" points="34.24 26.82 72.9 65.48 99.72 65.48 34.24 0 0 34.24 0 61.07 34.24 26.82"/><polygon class="cls-5" points="142.8 0 104.14 38.66 65.48 0 38.66 0 104.14 65.48 104.14 65.48 142.8 26.82 177.04 61.07 177.04 34.24 142.8 0"/></g></g></svg>