<svg xmlns="http://www.w3.org/2000/svg" xmlns:xlink="http://www.w3.org/1999/xlink" width="56" height="56" viewBox="0 0 56 56">
    <defs>
        <path id="a" d="M0 .031h55.782v55.86H0z"/>
        <path id="c" d="M0 55.969h55.782V.109H0z"/>
    </defs>
    <g fill="none" fill-rule="evenodd">
        <path fill="#F0F0F0" d="M23.535 23.98H5.019a.87.87 0 1 0 0 1.739h18.516a.87.87 0 0 0 0-1.74M23.535 32.085H5.019a.87.87 0 1 0 0 1.74h18.516a.87.87 0 0 0 0-1.74M5.02 28.421h16.336a.87.87 0 0 0 0-1.74H5.019a.87.87 0 1 0 0 1.74M5.02 36.527h14.157a.87.87 0 1 0 0-1.74H5.019a.87.87 0 1 0 0 1.74M50.93 15.615a.24.24 0 0 1-.24.24H29.992a.24.24 0 0 1-.24-.24V9.583H50.93v6.032zM29.752 5.573a.24.24 0 0 1 .24-.24H50.69a.24.24 0 0 1 .24.24v2.27H29.751v-2.27zm20.938-1.98H29.992c-1.091 0-1.98.889-1.98 1.98v10.042c0 1.092.889 1.98 1.98 1.98H50.69c1.091 0 1.98-.888 1.98-1.98V5.573c0-1.091-.889-1.98-1.98-1.98z"/>
        <path fill="#F0F0F0" d="M34.42 5.725a.864.864 0 1 0 0 1.727.864.864 0 0 0 0-1.727M31.542 5.725a.864.864 0 1 0 0 1.727.864.864 0 0 0 0-1.727"/>
        <g transform="translate(0 .078)">
            <mask id="b" fill="#fff">
                <use xlink:href="#a"/>
            </mask>
            <path fill="#F0F0F0" d="M50.93 33.576v1.03a.076.076 0 0 1-.076.076h-5.709a.076.076 0 0 1-.075-.076v-1.03h5.86zm-5.86-1.74h5.86v-.962h-5.86v.962zm0-5.404v-1.03c0-.042.034-.076.075-.076h5.709c.042 0 .075.034.075.076v1.03h-5.86zm0 2.702h5.86v-.962h-5.86v.962zm7.953 8.87h-8.018v-1.589c.047.004.093.007.14.007h5.709a1.818 1.818 0 0 0 1.815-1.816v-9.204a1.818 1.818 0 0 0-1.815-1.816h-5.709c-.047 0-.093.004-.14.008v-.061a4.363 4.363 0 0 0-4.358-4.358H26.64V2.79a1.02 1.02 0 0 1 1.02-1.019h25.364a1.02 1.02 0 0 1 1.02 1.019v34.195a1.02 1.02 0 0 1-1.02 1.02zm-3.111 2.834h2.241v-1.094h-2.241v1.094zm-6.65 3.722H1.743V23.533a2.618 2.618 0 0 1 2.615-2.615h36.29a2.618 2.618 0 0 1 2.614 2.615V44.56zm-2.615 4.358H4.358a2.618 2.618 0 0 1-2.615-2.615h41.52a2.618 2.618 0 0 1-2.616 2.615zm-22.125 5.23h8.716V50.66h-8.716v3.487zM53.023.03H27.658A2.762 2.762 0 0 0 24.9 2.79v16.385H4.358A4.363 4.363 0 0 0 0 23.533v22.77a4.363 4.363 0 0 0 4.358 4.358h12.42v3.487h-3.486v1.743h19.175v-1.743h-3.486V50.66h11.666a4.363 4.363 0 0 0 4.358-4.358v-6.559h3.167v1.136a1.7 1.7 0 0 0 1.697 1.698h2.327a1.7 1.7 0 0 0 1.697-1.698v-1.277a2.763 2.763 0 0 0 1.89-2.618V2.79A2.762 2.762 0 0 0 53.022.03z" mask="url(#b)"/>
        </g>
        <mask id="d" fill="#fff">
            <use xlink:href="#c"/>
        </mask>
        <path fill="#F0F0F0" d="M28.763 39.45h9.586V25.722h-9.586V39.45zm-1.744 1.743h13.074V23.98H27.019v17.214z" mask="url(#d)"/>
    </g>
</svg>
